<svg id="Layer_1" data-name="Layer 1" xmlns="http://www.w3.org/2000/svg" viewBox="0 0 32 32"><defs><style>.cls-1{fill:#10071e;}.cls-2{fill:#fff;}</style></defs><circle class="cls-1" cx="16" cy="16" r="15.64"/><path class="cls-2" d="M4.79,6.71V25.29a.65.65,0,0,0,.65.65H26.56a.65.65,0,0,0,.65-.65V6.71a.65.65,0,0,0-.65-.65H5.44A.65.65,0,0,0,4.79,6.71ZM22.76,25V16.24a.65.65,0,0,0-1.22-.33l-4,6.84a1.79,1.79,0,0,1-1.54.87,1.81,1.81,0,0,1-1.53-.86l-4-6.45a.65.65,0,0,0-1.21.34V25a.65.65,0,0,1-.66.65H5.74A.65.65,0,0,1,5.09,25V7a.65.65,0,0,1,.65-.65H5.8a5.32,5.32,0,0,1,4.56,2.56l5.16,8.48a.66.66,0,0,0,1.12,0L21.69,9a5.33,5.33,0,0,1,4.59-2.59h0a.65.65,0,0,1,.65.65L27,25a.65.65,0,0,1-.65.65H23.42A.66.66,0,0,1,22.76,25Z"/></svg>